<svg width="566" height="132" viewBox="0 0 566 132" fill="none" xmlns="http://www.w3.org/2000/svg">
<path d="M6.72888 96V29.088H28.8089C34.2489 29.088 38.6329 29.888 41.9609 31.488C45.2889 33.024 47.7209 35.264 49.2569 38.208C50.8569 41.088 51.6569 44.512 51.6569 48.48C51.6569 54.624 49.8969 59.392 46.3769 62.784C42.9209 66.112 37.9609 67.968 31.4969 68.352C30.0249 68.416 28.5209 68.448 26.9849 68.448C25.4489 68.448 24.1369 68.448 23.0489 68.448H19.1129V96H6.72888ZM43.1129 96L26.3129 67.008L38.9849 65.472L57.4169 96H43.1129ZM19.1129 57.312H27.5609C29.6729 57.312 31.5929 57.088 33.3209 56.64C35.1129 56.128 36.5529 55.264 37.6409 54.048C38.7289 52.768 39.2729 50.976 39.2729 48.672C39.2729 46.304 38.7289 44.512 37.6409 43.296C36.5529 42.08 35.1129 41.28 33.3209 40.896C31.5929 40.448 29.6729 40.224 27.5609 40.224H19.1129V57.312ZM83.8979 96.96C79.8019 96.96 76.2819 96.288 73.3379 94.944C70.3939 93.6 67.9619 91.808 66.0419 89.568C64.1859 87.264 62.8099 84.672 61.9139 81.792C61.0179 78.848 60.5699 75.776 60.5699 72.576C60.5699 69.504 61.0179 66.496 61.9139 63.552C62.8099 60.608 64.1539 57.952 65.9459 55.584C67.7379 53.216 70.0419 51.328 72.8579 49.92C75.7379 48.448 79.1619 47.712 83.1299 47.712C86.8419 47.712 90.0739 48.352 92.8259 49.632C95.5779 50.848 97.8499 52.576 99.6419 54.816C101.434 56.992 102.778 59.552 103.674 62.496C104.634 65.44 105.114 68.576 105.114 71.904C105.114 72.352 105.082 72.992 105.018 73.824C105.018 74.592 104.954 75.424 104.826 76.32H72.4739C72.7939 79.712 74.0419 82.272 76.2179 84C78.4579 85.728 81.2419 86.592 84.5699 86.592C87.0019 86.592 89.3699 86.176 91.6739 85.344C93.9779 84.448 96.0259 83.2 97.8179 81.6L103.77 89.664C101.53 91.392 99.4179 92.8 97.4339 93.888C95.4499 94.976 93.3699 95.744 91.1939 96.192C89.0819 96.704 86.6499 96.96 83.8979 96.96ZM93.3059 70.368C93.4339 69.856 93.5299 69.344 93.5939 68.832C93.7219 68.32 93.7859 67.84 93.7859 67.392C93.7859 66.048 93.5299 64.8 93.0179 63.648C92.5059 62.432 91.8019 61.376 90.9059 60.48C90.0099 59.584 88.9219 58.912 87.6419 58.464C86.4259 57.952 85.0179 57.696 83.4179 57.696C81.0499 57.696 79.0659 58.176 77.4659 59.136C75.8659 60.096 74.6499 61.344 73.8179 62.88C73.0499 64.352 72.5699 65.888 72.3779 67.488H97.3379L93.3059 70.368ZM135.547 96.96C131.707 96.96 128.347 96.288 125.467 94.944C122.651 93.536 120.251 91.68 118.267 89.376C116.347 87.072 114.907 84.448 113.947 81.504C112.987 78.56 112.507 75.488 112.507 72.288C112.507 69.152 112.987 66.112 113.947 63.168C114.907 60.224 116.347 57.6 118.267 55.296C120.251 52.992 122.651 51.168 125.467 49.824C128.347 48.416 131.707 47.712 135.547 47.712C140.347 47.712 144.507 48.864 148.027 51.168C151.547 53.472 154.171 56.96 155.899 61.632L145.531 65.76C144.763 63.52 143.579 61.696 141.979 60.288C140.443 58.816 138.299 58.08 135.547 58.08C132.987 58.08 130.875 58.784 129.211 60.192C127.547 61.536 126.331 63.296 125.563 65.472C124.795 67.648 124.411 69.92 124.411 72.288C124.411 74.656 124.795 76.96 125.563 79.2C126.331 81.376 127.547 83.168 129.211 84.576C130.875 85.92 132.987 86.592 135.547 86.592C138.299 86.592 140.443 85.888 141.979 84.48C143.579 83.008 144.763 81.12 145.531 78.816L155.899 82.944C154.171 87.68 151.547 91.2 148.027 93.504C144.507 95.808 140.347 96.96 135.547 96.96ZM186.568 96.96C181.96 96.96 177.864 95.904 174.28 93.792C170.696 91.68 167.848 88.768 165.736 85.056C163.688 81.28 162.664 77.024 162.664 72.288C162.664 67.488 163.688 63.264 165.736 59.616C167.784 55.904 170.6 52.992 174.184 50.88C177.832 48.768 181.96 47.712 186.568 47.712C191.112 47.712 195.176 48.768 198.76 50.88C202.344 52.992 205.16 55.904 207.208 59.616C209.256 63.264 210.28 67.488 210.28 72.288C210.28 77.024 209.256 81.248 207.208 84.96C205.16 88.672 202.344 91.616 198.76 93.792C195.176 95.904 191.112 96.96 186.568 96.96ZM186.568 86.496C189 86.496 191.08 85.92 192.808 84.768C194.6 83.616 195.944 81.984 196.84 79.872C197.8 77.76 198.28 75.232 198.28 72.288C198.28 69.28 197.8 66.752 196.84 64.704C195.944 62.592 194.6 60.992 192.808 59.904C191.08 58.752 189 58.176 186.568 58.176C184.072 58.176 181.928 58.752 180.136 59.904C178.344 60.992 176.968 62.592 176.008 64.704C175.048 66.752 174.568 69.28 174.568 72.288C174.568 75.232 175.048 77.76 176.008 79.872C176.968 81.984 178.344 83.616 180.136 84.768C181.928 85.92 184.072 86.496 186.568 86.496ZM219.809 96V48.672H231.809V61.536L229.985 61.728C230.177 58.976 231.009 56.544 232.481 54.432C233.953 52.32 235.745 50.688 237.857 49.536C240.033 48.32 242.241 47.712 244.481 47.712C246.081 47.712 247.585 47.936 248.993 48.384C250.465 48.768 251.969 49.44 253.505 50.4L247.745 61.152C247.041 60.768 246.145 60.416 245.057 60.096C243.969 59.776 242.881 59.616 241.793 59.616C240.513 59.616 239.265 59.84 238.049 60.288C236.897 60.736 235.841 61.44 234.881 62.4C233.985 63.36 233.249 64.64 232.673 66.24C232.417 67.136 232.193 68.288 232.001 69.696C231.873 71.04 231.809 73.024 231.809 75.648V96H219.809ZM276.105 96.96C271.945 96.96 268.361 95.904 265.353 93.792C262.345 91.616 260.009 88.672 258.345 84.96C256.745 81.184 255.945 76.96 255.945 72.288C255.945 67.104 256.841 62.688 258.633 59.04C260.489 55.392 262.953 52.608 266.025 50.688C269.097 48.704 272.457 47.712 276.105 47.712C278.665 47.712 281.033 48.256 283.209 49.344C285.449 50.368 287.369 51.936 288.969 54.048C290.569 56.16 291.625 58.848 292.137 62.112L289.737 61.44V29.088H301.545V96H289.737V83.328L292.521 81.984C291.753 85.696 290.505 88.672 288.777 90.912C287.113 93.088 285.161 94.656 282.921 95.616C280.745 96.512 278.473 96.96 276.105 96.96ZM279.369 86.016C281.737 86.016 283.753 85.44 285.417 84.288C287.145 83.136 288.457 81.536 289.353 79.488C290.313 77.44 290.793 75.04 290.793 72.288C290.793 69.536 290.313 67.136 289.353 65.088C288.457 63.04 287.145 61.472 285.417 60.384C283.753 59.232 281.737 58.656 279.369 58.656C277.065 58.656 275.049 59.232 273.321 60.384C271.593 61.472 270.249 63.04 269.289 65.088C268.393 67.072 267.945 69.472 267.945 72.288C267.945 75.104 268.393 77.536 269.289 79.584C270.249 81.632 271.593 83.232 273.321 84.384C275.049 85.472 277.065 86.016 279.369 86.016ZM329.694 96.96C326.174 96.96 323.102 96.448 320.478 95.424C317.854 94.4 315.614 93.12 313.758 91.584C311.966 90.048 310.526 88.576 309.438 87.168L317.598 80.064C318.686 81.856 320.222 83.52 322.206 85.056C324.254 86.528 326.782 87.264 329.79 87.264C332.158 87.264 333.982 86.816 335.262 85.92C336.606 84.96 337.278 83.776 337.278 82.368C337.278 81.216 336.862 80.288 336.03 79.584C335.198 78.816 334.078 78.208 332.67 77.76C331.262 77.248 329.694 76.768 327.966 76.32C326.174 75.808 324.318 75.232 322.398 74.592C320.478 73.952 318.718 73.12 317.118 72.096C315.518 71.008 314.206 69.632 313.182 67.968C312.222 66.304 311.742 64.224 311.742 61.728C311.742 57.568 313.374 54.208 316.638 51.648C319.902 49.024 324.222 47.712 329.598 47.712C333.374 47.712 336.798 48.48 339.87 50.016C342.942 51.488 345.374 53.632 347.166 56.448L339.774 62.304C338.622 60.448 337.086 59.072 335.166 58.176C333.31 57.216 331.326 56.736 329.214 56.736C327.358 56.736 325.822 57.088 324.606 57.792C323.454 58.496 322.878 59.456 322.878 60.672C322.878 61.504 323.134 62.208 323.646 62.784C324.222 63.36 325.118 63.872 326.334 64.32C327.614 64.704 329.278 65.152 331.326 65.664C333.246 66.112 335.23 66.656 337.278 67.296C339.326 67.936 341.246 68.8 343.038 69.888C344.83 70.976 346.27 72.416 347.358 74.208C348.446 76 348.99 78.272 348.99 81.024C348.99 84.16 348.19 86.944 346.59 89.376C344.99 91.744 342.75 93.6 339.87 94.944C336.99 96.288 333.598 96.96 329.694 96.96Z" fill="white"/>
<path d="M388.141 74.25C387.766 73.4375 387.453 72.7812 387.203 72.2812C387.016 71.7812 386.922 71.1875 386.922 70.5C386.922 69.9375 386.984 69.4375 387.109 69C387.297 68.5 387.391 67.9688 387.391 67.4062C387.391 66.0312 387.328 64.75 387.203 63.5625C387.141 62.375 387.047 61.0625 386.922 59.625C386.859 59.4375 386.641 59.2812 386.266 59.1562C385.891 59.0312 385.484 58.875 385.047 58.6875C384.609 58.4375 384.203 58.0938 383.828 57.6562C383.516 57.2188 383.359 56.5938 383.359 55.7812C383.359 55.0312 383.516 54.4062 383.828 53.9062C384.203 53.3438 384.578 52.8438 384.953 52.4062C385.328 51.9062 385.672 51.4062 385.984 50.9062C386.359 50.3438 386.547 49.6875 386.547 48.9375C386.547 48.625 386.516 48.0625 386.453 47.25C386.391 46.375 386.328 45.4688 386.266 44.5312C386.266 43.5938 386.234 42.7188 386.172 41.9062C386.172 41.0312 386.172 40.4375 386.172 40.125V39.9375V39.75C386.422 39.1875 386.609 38.7188 386.734 38.3438C386.922 37.9688 387.109 37.6875 387.297 37.5C387.484 37.3125 387.734 37.1875 388.047 37.125C388.359 37 388.766 36.9375 389.266 36.9375C390.578 36.9375 391.547 37.1875 392.172 37.6875C392.797 38.1875 393.234 38.7812 393.484 39.4688C393.734 40.0938 393.891 40.6875 393.953 41.25C394.016 41.8125 394.172 42.125 394.422 42.1875L401.172 36.2812H401.547C403.734 34.8438 406.047 33.75 408.484 33C410.922 32.1875 413.484 31.7812 416.172 31.7812C416.984 31.7812 417.953 31.875 419.078 32.0625C420.266 32.25 421.359 32.5938 422.359 33.0938C423.422 33.5312 424.297 34.125 424.984 34.875C425.734 35.625 426.109 36.5625 426.109 37.6875C426.109 38.9375 425.953 40.2188 425.641 41.5312C425.328 42.8438 424.891 44.1562 424.328 45.4688C423.828 46.7188 423.203 47.9375 422.453 49.125C421.766 50.25 421.016 51.2188 420.203 52.0312C419.891 52.7188 417.891 54.4688 414.203 57.2812C410.516 60.0938 405.016 64.2812 397.703 69.8438L442.703 72.6562C443.328 72.7188 444.172 72.7812 445.234 72.8438C446.359 72.8438 447.422 72.9375 448.422 73.125C449.484 73.3125 450.391 73.6875 451.141 74.25C451.891 74.75 452.266 75.5312 452.266 76.5938C452.266 77.1562 452.172 77.625 451.984 78C451.859 78.3125 451.672 78.5938 451.422 78.8438C451.234 79.0312 450.984 79.2188 450.672 79.4062C450.422 79.5938 450.172 79.8438 449.922 80.1562H448.328H446.734C445.484 80.0312 444.172 79.875 442.797 79.6875C441.484 79.5 439.922 79.2812 438.109 79.0312C436.359 78.7812 434.297 78.5312 431.922 78.2812C429.547 78.0312 426.703 77.8125 423.391 77.625C420.078 77.4375 416.203 77.2812 411.766 77.1562C407.391 77.0312 402.297 76.9688 396.484 76.9688C396.422 76.9688 396.328 77.0625 396.203 77.25C396.141 77.4375 396.109 77.5938 396.109 77.7188C396.109 80.0938 396.297 82.4375 396.672 84.75C397.109 87 397.328 89.25 397.328 91.5C397.328 91.9375 397.266 92.4375 397.141 93C397.078 93.5 396.922 94 396.672 94.5C396.422 94.9375 396.109 95.3125 395.734 95.625C395.359 95.9375 394.891 96.0938 394.328 96.0938C393.953 96.0938 393.516 96.0312 393.016 95.9062C392.516 95.7188 392.016 95.4688 391.516 95.1562C391.078 94.8438 390.672 94.5 390.297 94.125C389.922 93.75 389.703 93.3125 389.641 92.8125L388.141 74.25ZM394.422 53.5312C394.422 55.0938 394.453 56.5625 394.516 57.9375C394.578 59.3125 394.672 60.8125 394.797 62.4375H395.078C395.141 62.4375 395.297 62.375 395.547 62.25C395.797 62.125 396.422 61.75 397.422 61.125C398.422 60.4375 399.953 59.4062 402.016 58.0312C404.078 56.5938 406.984 54.5938 410.734 52.0312C411.484 51.5938 412.297 50.8438 413.172 49.7812C414.047 48.7188 414.859 47.5625 415.609 46.3125C416.359 45.0625 416.984 43.8438 417.484 42.6562C417.984 41.4062 418.234 40.375 418.234 39.5625C418.234 38.9375 417.922 38.625 417.297 38.625C416.734 38.625 416.234 38.625 415.797 38.625C414.859 38.625 413.797 38.7812 412.609 39.0938C411.422 39.4062 409.984 40.0312 408.297 40.9688C406.672 41.9062 404.703 43.25 402.391 45C400.141 46.75 397.484 49.0938 394.422 52.0312V53.5312ZM494.359 69.375C494.234 70.5 494.078 71.375 493.891 72C493.766 72.625 493.516 73.1875 493.141 73.6875C492.766 74.1875 492.234 74.7188 491.547 75.2812C490.859 75.7812 489.922 76.5312 488.734 77.5312C487.547 78.4688 486.078 79.7188 484.328 81.2812C482.578 82.8438 480.453 84.875 477.953 87.375C476.953 88.3125 475.922 89.2812 474.859 90.2812C473.797 91.2812 472.672 92.1875 471.484 93C470.359 93.75 469.172 94.375 467.922 94.875C466.672 95.375 465.359 95.625 463.984 95.625C461.297 95.625 459.328 94.7188 458.078 92.9062C456.828 91.0938 456.203 89 456.203 86.625C456.203 85.0625 456.234 83.75 456.297 82.6875C456.422 81.625 456.672 80.25 457.047 78.5625C456.359 77.9375 455.766 77.4062 455.266 76.9688C454.766 76.4688 454.516 75.8125 454.516 75C454.516 74.25 454.672 73.75 454.984 73.5C455.359 73.25 455.766 73.0938 456.203 73.0312C456.703 72.9062 457.172 72.7812 457.609 72.6562C458.047 72.5312 458.359 72.2812 458.547 71.9062C458.672 71.5312 458.891 70.8438 459.203 69.8438C459.578 68.8438 459.953 67.8125 460.328 66.75C460.703 65.625 461.047 64.5938 461.359 63.6562C461.734 62.6562 461.984 61.9688 462.109 61.5938C462.547 60.5312 463.016 59.4688 463.516 58.4062C464.078 57.2812 464.703 56.2812 465.391 55.4062C466.141 54.5312 466.984 53.8125 467.922 53.25C468.922 52.6875 470.078 52.4062 471.391 52.4062C472.141 52.4062 473.047 52.75 474.109 53.4375C475.234 54.125 476.297 54.9688 477.297 55.9688C478.297 56.9062 479.141 57.9062 479.828 58.9688C480.516 60.0312 480.859 60.9375 480.859 61.6875C480.859 62.625 480.641 63.5 480.203 64.3125C479.766 65.0625 479.203 65.7812 478.516 66.4688C477.891 67.0938 477.203 67.6875 476.453 68.25C475.703 68.8125 475.016 69.3438 474.391 69.8438C474.328 69.8438 474.203 69.9062 474.016 70.0312C473.828 70.1562 473.672 70.25 473.547 70.3125C473.484 70.375 473.328 70.5312 473.078 70.7812C472.891 70.9688 472.672 71.1875 472.422 71.4375C472.172 71.6875 471.922 71.9375 471.672 72.1875C471.484 72.4375 471.359 72.5938 471.297 72.6562C471.109 72.8438 470.734 73.1562 470.172 73.5938C469.672 73.9688 469.109 74.4062 468.484 74.9062C467.859 75.3438 467.266 75.7812 466.703 76.2188C466.203 76.5938 465.859 76.8438 465.672 76.9688L465.297 77.7188C465.172 77.9688 465.047 78.5312 464.922 79.4062C464.859 80.2188 464.766 81.1562 464.641 82.2188C464.516 83.2812 464.391 84.375 464.266 85.5C464.203 86.5625 464.172 87.4375 464.172 88.125C464.172 88.1875 464.203 88.25 464.266 88.3125C464.391 88.4375 464.484 88.5 464.547 88.5C465.047 88.5 465.516 88.2812 465.953 87.8438C466.391 87.4062 466.859 87.0938 467.359 86.9062L482.359 73.0312L486.203 67.125C486.516 66.6875 487.109 66.2188 487.984 65.7188C488.922 65.1562 489.859 64.875 490.797 64.875C491.734 64.8125 492.547 65.0938 493.234 65.7188C493.984 66.3438 494.359 67.5625 494.359 69.375ZM473.734 62.0625C474.047 61.8125 474.172 61.4375 474.109 60.9375C474.047 60.4375 473.859 60 473.547 59.625C473.297 59.25 472.953 59.0312 472.516 58.9688C472.078 58.8438 471.672 59.0625 471.297 59.625C471.109 59.875 470.766 60.375 470.266 61.125C469.828 61.875 469.359 62.6562 468.859 63.4688C468.422 64.2188 468.047 64.875 467.734 65.4375C467.422 66 467.359 66.2188 467.547 66.0938L473.734 62.0625ZM499.891 79.125C498.703 78.6875 497.609 78.1562 496.609 77.5312C495.672 76.9062 495.203 75.875 495.203 74.4375C495.203 74.0625 495.297 73.8125 495.484 73.6875C495.672 73.5625 495.828 73.375 495.953 73.125C496.078 72.9375 496.328 72.5938 496.703 72.0938C497.078 71.5938 497.484 71.0625 497.922 70.5C498.359 69.875 498.766 69.3125 499.141 68.8125C499.516 68.25 499.766 67.875 499.891 67.6875C499.891 66.875 499.828 65.9062 499.703 64.7812C499.641 63.5938 499.672 62.5 499.797 61.5C499.984 60.4375 500.359 59.5625 500.922 58.875C501.484 58.125 502.422 57.75 503.734 57.75C504.484 57.75 505.109 58.0312 505.609 58.5938C506.109 59.0938 506.734 59.3438 507.484 59.3438H507.859C510.422 57.3438 513.047 55.5938 515.734 54.0938C518.484 52.5312 521.547 51.75 524.922 51.75C527.109 51.75 528.891 52.4062 530.266 53.7188C531.703 54.9688 532.422 56.75 532.422 59.0625C532.422 61.9375 531.766 64.9062 530.453 67.9688C529.141 71.0312 527.484 74.0312 525.484 76.9688C523.547 79.8438 521.422 82.5625 519.109 85.125C516.859 87.6875 514.797 89.9062 512.922 91.7812C512.734 92.0312 512.453 92.3125 512.078 92.625C511.703 92.875 511.359 93.1562 511.047 93.4688C510.672 93.7812 510.266 94.1562 509.828 94.5938L509.078 116.156C509.078 116.719 509.047 117.312 508.984 117.938C508.984 118.562 508.859 119.125 508.609 119.625C508.422 120.188 508.109 120.625 507.672 120.938C507.297 121.312 506.734 121.5 505.984 121.5C505.609 121.5 505.109 121.406 504.484 121.219C503.859 121.094 503.266 120.875 502.703 120.562C502.141 120.25 501.641 119.875 501.203 119.438C500.828 119 500.641 118.5 500.641 117.938L499.891 79.125ZM508.609 85.0312H508.984C509.047 85.0312 509.234 84.8438 509.547 84.4688C509.922 84.0938 510.328 83.6562 510.766 83.1562C511.266 82.6562 511.734 82.1562 512.172 81.6562C512.672 81.0938 513.047 80.6562 513.297 80.3438C515.172 78.9688 516.891 77.25 518.453 75.1875C520.016 73.125 521.266 71.0625 522.203 69C523.203 66.875 523.797 64.9688 523.984 63.2812C524.234 61.5938 523.953 60.4375 523.141 59.8125C522.391 59.125 521.047 59.1875 519.109 60C517.234 60.8125 514.672 62.6875 511.422 65.625C510.672 66.25 509.984 66.9688 509.359 67.7812C508.734 68.5938 508.359 69.5 508.234 70.5L508.609 85.0312ZM536.734 81.6562L540.203 57.5625C540.328 56.75 540.672 56.1562 541.234 55.7812C541.859 55.4062 542.547 55.2188 543.297 55.2188C544.672 55.2188 545.766 55.625 546.578 56.4375C547.391 57.1875 548.078 58.125 548.641 59.25H548.734C549.484 59.25 550.141 59.125 550.703 58.875C551.328 58.5625 552.078 58.4062 552.953 58.4062C554.953 58.4062 556.641 59.0312 558.016 60.2812C559.453 61.5312 560.609 63.0625 561.484 64.875C562.359 66.625 562.984 68.5312 563.359 70.5938C563.797 72.6562 564.016 74.4688 564.016 76.0312C564.016 77.9062 563.516 80 562.516 82.3125C561.578 84.625 560.297 86.8125 558.672 88.875C557.109 90.9375 555.328 92.6562 553.328 94.0312C551.328 95.4062 549.297 96.0938 547.234 96.0938C545.359 96.0938 543.734 95.6562 542.359 94.7812C541.047 93.9062 539.953 92.8125 539.078 91.5C538.266 90.125 537.672 88.5938 537.297 86.9062C536.922 85.2188 536.734 83.5625 536.734 81.9375V81.6562ZM544.609 82.2188C544.734 82.8438 544.859 83.5625 544.984 84.375C545.109 85.1875 545.297 85.9375 545.547 86.625C545.797 87.25 546.141 87.75 546.578 88.125C547.078 88.4375 547.766 88.4375 548.641 88.125C549.453 87.375 550.328 86.5312 551.266 85.5938C552.203 84.6562 553.078 83.6562 553.891 82.5938C554.766 81.5312 555.484 80.4062 556.047 79.2188C556.609 78.0312 556.891 76.7812 556.891 75.4688C557.141 73.3438 556.984 71.4062 556.422 69.6562C555.859 67.8438 555.047 66.5625 553.984 65.8125C552.984 65 551.828 64.9062 550.516 65.5312C549.203 66.0938 547.891 67.6875 546.578 70.3125C545.828 71.9375 545.297 73.8438 544.984 76.0312C544.734 78.1562 544.609 80.125 544.609 81.9375V82.2188Z" fill="white"/>
</svg>
